<?xml version="1.0" encoding="UTF-8" standalone="no"?>
<!DOCTYPE svg PUBLIC "-//W3C//DTD SVG 1.1//EN" "http://www.w3.org/Graphics/SVG/1.1/DTD/svg11.dtd">
<svg xmlns="http://www.w3.org/2000/svg" version="1.1" viewBox="0.00 0.00 2016.00 444.00">
<g stroke-width="2.00" fill="none" stroke-linecap="butt">
<path stroke="#8094c3" vector-effect="non-scaling-stroke" d="
  M 295.88 133.26
  L 413.08 133.31
  A 0.80 0.78 -82.3 0 0 413.84 132.72
  L 427.54 82.36
  Q 427.72 81.71 427.05 81.71
  L 244.64 81.73
  A 0.61 0.59 8.1 0 0 244.08 82.14
  L 156.60 361.83
  A 0.40 0.40 0.0 0 0 156.99 362.35
  Q 188.60 362.25 220.25 362.40
  Q 222.00 362.40 223.73 361.85
  A 0.95 0.83 -2.5 0 0 224.33 361.28
  L 258.66 245.49
  Q 259.02 244.27 260.29 244.27
  L 375.15 244.30
  Q 375.87 244.30 376.04 243.61
  L 386.17 202.04
  Q 386.53 200.57 385.02 200.58
  Q 337.67 200.83 289.25 200.79
  Q 282.36 200.78 275.23 200.43
  A 0.89 0.89 0.0 0 1 274.39 199.41
  Q 274.65 197.65 275.36 195.51
  Q 285.49 165.19 295.20 134.72
  Q 295.26 134.53 295.25 134.30
  Q 295.23 134.03 295.27 133.78
  Q 295.36 133.26 295.88 133.26"
/>
<path stroke="#8094c3" vector-effect="non-scaling-stroke" d="
  M 831.68 82.32
  A 0.44 0.44 0.0 0 0 831.26 81.75
  L 762.38 81.68
  A 0.44 0.44 0.0 0 0 761.95 81.99
  L 676.66 361.79
  A 0.44 0.44 0.0 0 0 677.08 362.36
  L 741.57 362.32
  A 0.44 0.44 0.0 0 0 741.99 362.01
  L 831.68 82.32"
/>
<path stroke="#8094c3" vector-effect="non-scaling-stroke" d="
  M 1263.71 305.86
  L 1267.72 361.82
  Q 1267.76 362.38 1268.32 362.38
  L 1332.74 362.32
  Q 1333.31 362.32 1333.25 361.75
  Q 1332.78 357.58 1331.74 344.25
  Q 1325.21 260.02 1312.12 97.59
  C 1311.74 92.88 1311.64 87.32 1311.19 82.15
  Q 1311.16 81.74 1310.75 81.74
  L 1255.95 81.61
  A 3.78 3.78 0.0 0 0 1252.79 83.29
  Q 1162.19 219.75 1071.40 356.68
  C 1070.75 357.66 1069.06 359.67 1068.67 361.17
  Q 1068.34 362.46 1069.68 362.45
  Q 1095.75 362.27 1120.25 362.43
  C 1123.38 362.46 1126.80 362.85 1128.88 359.88
  Q 1147.80 332.77 1166.75 305.66
  A 0.77 0.77 0.0 0 1 1167.38 305.33
  L 1263.00 305.30
  Q 1263.67 305.30 1263.71 305.86"
/>
<path stroke="#8094c3" vector-effect="non-scaling-stroke" d="
  M 1699.46 131.30
  A 0.52 0.52 0.0 0 1 1699.98 131.85
  Q 1699.74 136.20 1698.39 140.55
  Q 1664.08 251.33 1629.98 361.65
  Q 1629.78 362.33 1630.48 362.33
  L 1696.08 362.28
  A 1.97 1.97 0.0 0 0 1697.96 360.89
  L 1769.03 131.97
  A 1.03 0.96 8.0 0 1 1770.00 131.29
  L 1854.74 131.27
  A 0.47 0.47 0.0 0 0 1855.18 130.96
  L 1872.53 82.80
  Q 1872.92 81.73 1871.77 81.73
  L 1635.56 81.72
  Q 1635.02 81.72 1634.83 82.22
  L 1616.12 130.85
  Q 1615.96 131.26 1616.33 131.26
  L 1699.46 131.30"
/>
<path stroke="#8094c3" vector-effect="non-scaling-stroke" d="
  M 1251.34 158.30
  L 1198.20 248.31
  Q 1197.75 249.08 1198.64 249.21
  Q 1200.69 249.51 1202.00 249.51
  Q 1231.01 249.52 1260.05 249.49
  Q 1260.80 249.49 1260.56 248.77
  L 1259.93 246.88
  Q 1259.79 246.44 1259.78 245.98
  Q 1259.75 240.70 1258.95 235.50
  C 1258.59 233.19 1259.16 230.96 1258.83 228.50
  C 1257.98 222.07 1258.10 215.70 1257.34 209.24
  Q 1257.04 206.76 1256.98 202.73
  C 1256.92 198.81 1256.20 194.87 1256.14 191.08
  C 1256.05 185.27 1255.20 179.32 1254.99 173.82
  Q 1254.73 167.27 1254.03 160.75
  Q 1253.82 158.84 1253.57 158.30
  Q 1252.60 156.17 1251.34 158.30"
/>
</g>
<path fill="#ffffff" d="
  M 578.76 7.53
  L 450.03 438.15
  A 1.19 1.19 0.0 0 1 448.89 439.00
  L 8.93 439.00
  A 1.19 1.19 0.0 0 1 7.79 437.48
  L 132.05 6.86
  A 1.19 1.19 0.0 0 1 133.20 6.00
  L 577.62 6.00
  A 1.19 1.19 0.0 0 1 578.76 7.53
  Z
  M 295.88 133.26
  L 413.08 133.31
  A 0.80 0.78 -82.3 0 0 413.84 132.72
  L 427.54 82.36
  Q 427.72 81.71 427.05 81.71
  L 244.64 81.73
  A 0.61 0.59 8.1 0 0 244.08 82.14
  L 156.60 361.83
  A 0.40 0.40 0.0 0 0 156.99 362.35
  Q 188.60 362.25 220.25 362.40
  Q 222.00 362.40 223.73 361.85
  A 0.95 0.83 -2.5 0 0 224.33 361.28
  L 258.66 245.49
  Q 259.02 244.27 260.29 244.27
  L 375.15 244.30
  Q 375.87 244.30 376.04 243.61
  L 386.17 202.04
  Q 386.53 200.57 385.02 200.58
  Q 337.67 200.83 289.25 200.79
  Q 282.36 200.78 275.23 200.43
  A 0.89 0.89 0.0 0 1 274.39 199.41
  Q 274.65 197.65 275.36 195.51
  Q 285.49 165.19 295.20 134.72
  Q 295.26 134.53 295.25 134.30
  Q 295.23 134.03 295.27 133.78
  Q 295.36 133.26 295.88 133.26
  Z"
/>
<path fill="#ffffff" d="
  M 474.38 437.86
  L 606.94 6.62
  A 0.88 0.88 0.0 0 1 607.78 6.00
  L 1053.15 6.00
  A 0.88 0.88 0.0 0 1 1053.99 7.13
  L 925.08 438.37
  A 0.88 0.88 0.0 0 1 924.23 439.00
  L 475.22 439.00
  A 0.88 0.88 0.0 0 1 474.38 437.86
  Z
  M 831.68 82.32
  A 0.44 0.44 0.0 0 0 831.26 81.75
  L 762.38 81.68
  A 0.44 0.44 0.0 0 0 761.95 81.99
  L 676.66 361.79
  A 0.44 0.44 0.0 0 0 677.08 362.36
  L 741.57 362.32
  A 0.44 0.44 0.0 0 0 741.99 362.01
  L 831.68 82.32
  Z"
/>
<path fill="#ffffff" d="
  M 951.22 437.80
  L 1082.81 6.66
  A 0.93 0.93 0.0 0 1 1083.70 6.00
  L 1529.12 6.00
  A 0.93 0.93 0.0 0 1 1530.01 7.20
  L 1399.63 438.34
  A 0.93 0.93 0.0 0 1 1398.74 439.00
  L 952.11 439.00
  A 0.93 0.93 0.0 0 1 951.22 437.80
  Z
  M 1263.71 305.86
  L 1267.72 361.82
  Q 1267.76 362.38 1268.32 362.38
  L 1332.74 362.32
  Q 1333.31 362.32 1333.25 361.75
  Q 1332.78 357.58 1331.74 344.25
  Q 1325.21 260.02 1312.12 97.59
  C 1311.74 92.88 1311.64 87.32 1311.19 82.15
  Q 1311.16 81.74 1310.75 81.74
  L 1255.95 81.61
  A 3.78 3.78 0.0 0 0 1252.79 83.29
  Q 1162.19 219.75 1071.40 356.68
  C 1070.75 357.66 1069.06 359.67 1068.67 361.17
  Q 1068.34 362.46 1069.68 362.45
  Q 1095.75 362.27 1120.25 362.43
  C 1123.38 362.46 1126.80 362.85 1128.88 359.88
  Q 1147.80 332.77 1166.75 305.66
  A 0.77 0.77 0.0 0 1 1167.38 305.33
  L 1263.00 305.30
  Q 1263.67 305.30 1263.71 305.86
  Z"
/>
<path fill="#ffffff" d="
  M 1426.99 437.46
  L 1559.83 6.84
  A 1.19 1.19 0.0 0 1 1560.97 6.00
  L 2007.07 6.00
  A 1.19 1.19 0.0 0 1 2008.21 7.54
  L 1877.40 438.16
  A 1.19 1.19 0.0 0 1 1876.26 439.00
  L 1428.12 439.00
  A 1.19 1.19 0.0 0 1 1426.99 437.46
  Z
  M 1699.46 131.30
  A 0.52 0.52 0.0 0 1 1699.98 131.85
  Q 1699.74 136.20 1698.39 140.55
  Q 1664.08 251.33 1629.98 361.65
  Q 1629.78 362.33 1630.48 362.33
  L 1696.08 362.28
  A 1.97 1.97 0.0 0 0 1697.96 360.89
  L 1769.03 131.97
  A 1.03 0.96 8.0 0 1 1770.00 131.29
  L 1854.74 131.27
  A 0.47 0.47 0.0 0 0 1855.18 130.96
  L 1872.53 82.80
  Q 1872.92 81.73 1871.77 81.73
  L 1635.56 81.72
  Q 1635.02 81.72 1634.83 82.22
  L 1616.12 130.85
  Q 1615.96 131.26 1616.33 131.26
  L 1699.46 131.30
  Z"
/>
<path fill="#002987" d="
  M 295.27 133.78
  Q 295.23 134.03 295.25 134.30
  Q 295.26 134.53 295.20 134.72
  Q 285.49 165.19 275.36 195.51
  Q 274.65 197.65 274.39 199.41
  A 0.89 0.89 0.0 0 0 275.23 200.43
  Q 282.36 200.78 289.25 200.79
  Q 337.67 200.83 385.02 200.58
  Q 386.53 200.57 386.17 202.04
  L 376.04 243.61
  Q 375.87 244.30 375.15 244.30
  L 260.29 244.27
  Q 259.02 244.27 258.66 245.49
  L 224.33 361.28
  A 0.95 0.83 -2.5 0 1 223.73 361.85
  Q 222.00 362.40 220.25 362.40
  Q 188.60 362.25 156.99 362.35
  A 0.40 0.40 0.0 0 1 156.60 361.83
  L 244.08 82.14
  A 0.61 0.59 8.1 0 1 244.64 81.73
  L 427.05 81.71
  Q 427.72 81.71 427.54 82.36
  L 413.84 132.72
  A 0.80 0.78 -82.3 0 1 413.08 133.31
  L 295.88 133.26
  Q 295.36 133.26 295.27 133.78
  Z"
/>
<path fill="#002987" d="
  M 831.68 82.32
  L 741.99 362.01
  A 0.44 0.44 0.0 0 1 741.57 362.32
  L 677.08 362.36
  A 0.44 0.44 0.0 0 1 676.66 361.79
  L 761.95 81.99
  A 0.44 0.44 0.0 0 1 762.38 81.68
  L 831.26 81.75
  A 0.44 0.44 0.0 0 1 831.68 82.32
  Z"
/>
<path fill="#002987" d="
  M 1263.00 305.30
  L 1167.38 305.33
  A 0.77 0.77 0.0 0 0 1166.75 305.66
  Q 1147.80 332.77 1128.88 359.88
  C 1126.80 362.85 1123.38 362.46 1120.25 362.43
  Q 1095.75 362.27 1069.68 362.45
  Q 1068.34 362.46 1068.67 361.17
  C 1069.06 359.67 1070.75 357.66 1071.40 356.68
  Q 1162.19 219.75 1252.79 83.29
  A 3.78 3.78 0.0 0 1 1255.95 81.61
  L 1310.75 81.74
  Q 1311.16 81.74 1311.19 82.15
  C 1311.64 87.32 1311.74 92.88 1312.12 97.59
  Q 1325.21 260.02 1331.74 344.25
  Q 1332.78 357.58 1333.25 361.75
  Q 1333.31 362.32 1332.74 362.32
  L 1268.32 362.38
  Q 1267.76 362.38 1267.72 361.82
  L 1263.71 305.86
  Q 1263.67 305.30 1263.00 305.30
  Z
  M 1251.34 158.30
  L 1198.20 248.31
  Q 1197.75 249.08 1198.64 249.21
  Q 1200.69 249.51 1202.00 249.51
  Q 1231.01 249.52 1260.05 249.49
  Q 1260.80 249.49 1260.56 248.77
  L 1259.93 246.88
  Q 1259.79 246.44 1259.78 245.98
  Q 1259.75 240.70 1258.95 235.50
  C 1258.59 233.19 1259.16 230.96 1258.83 228.50
  C 1257.98 222.07 1258.10 215.70 1257.34 209.24
  Q 1257.04 206.76 1256.98 202.73
  C 1256.92 198.81 1256.20 194.87 1256.14 191.08
  C 1256.05 185.27 1255.20 179.32 1254.99 173.82
  Q 1254.73 167.27 1254.03 160.75
  Q 1253.82 158.84 1253.57 158.30
  Q 1252.60 156.17 1251.34 158.30
  Z"
/>
<path fill="#002987" d="
  M 1699.46 131.30
  L 1616.33 131.26
  Q 1615.96 131.26 1616.12 130.85
  L 1634.83 82.22
  Q 1635.02 81.72 1635.56 81.72
  L 1871.77 81.73
  Q 1872.92 81.73 1872.53 82.80
  L 1855.18 130.96
  A 0.47 0.47 0.0 0 1 1854.74 131.27
  L 1770.00 131.29
  A 1.03 0.96 8.0 0 0 1769.03 131.97
  L 1697.96 360.89
  A 1.97 1.97 0.0 0 1 1696.08 362.28
  L 1630.48 362.33
  Q 1629.78 362.33 1629.98 361.65
  Q 1664.08 251.33 1698.39 140.55
  Q 1699.74 136.20 1699.98 131.85
  A 0.52 0.52 0.0 0 0 1699.46 131.30
  Z"
/>
<path fill="#ffffff" d="
  M 1198.20 248.31
  L 1251.34 158.30
  Q 1252.60 156.17 1253.57 158.30
  Q 1253.82 158.84 1254.03 160.75
  Q 1254.73 167.27 1254.99 173.82
  C 1255.20 179.32 1256.05 185.27 1256.14 191.08
  C 1256.20 194.87 1256.92 198.81 1256.98 202.73
  Q 1257.04 206.76 1257.34 209.24
  C 1258.10 215.70 1257.98 222.07 1258.83 228.50
  C 1259.16 230.96 1258.59 233.19 1258.95 235.50
  Q 1259.75 240.70 1259.78 245.98
  Q 1259.79 246.44 1259.93 246.88
  L 1260.56 248.77
  Q 1260.80 249.49 1260.05 249.49
  Q 1231.01 249.52 1202.00 249.51
  Q 1200.69 249.51 1198.64 249.21
  Q 1197.75 249.08 1198.20 248.31
  Z"
/>
</svg>
